<svg width="192" height="192" viewBox="0 0 192 192" fill="none" xmlns="http://www.w3.org/2000/svg">
<path d="M167 0H25C11.1929 0 0 11.1929 0 25V167C0 180.807 11.1929 192 25 192H167C180.807 192 192 180.807 192 167V25C192 11.1929 180.807 0 167 0Z" fill="#C4C4C4"/>
<g clip-path="url(#clip0)">
<rect width="134" height="128" transform="translate(29 32)" fill="#C4C4C4"/>
<path d="M43 99.9206C46.1489 106.092 50.7794 111.479 55.3671 116.63C60.436 122.321 65.7829 127.797 70.8947 133.477C75.039 138.081 79.3767 142.555 83.5641 147.135C85.0676 148.78 86.6791 151.694 88.4835 152.934C89.4952 153.63 90.2471 149.256 90.3248 149.004C91.6019 144.867 93.1801 140.711 95.1617 136.857C102.671 122.252 110.498 108.21 120.226 94.9188C125.566 87.6218 130.856 80.2335 135.946 72.7679C139.757 67.1782 143.694 61.5138 147.681 56.141C150.115 52.8601 151.879 49.233 154.304 46" stroke="black" stroke-width="3" stroke-linecap="round"/>
<path d="M37 99.9206C40.1489 106.092 44.7794 111.479 49.3671 116.63C54.436 122.321 59.7829 127.797 64.8947 133.477C69.039 138.081 73.3767 142.555 77.5641 147.135C79.0676 148.78 80.6791 151.694 82.4835 152.934C83.4952 153.63 84.2471 149.256 84.3248 149.004C85.6019 144.867 87.1801 140.711 89.1617 136.857C96.6708 122.252 104.498 108.21 114.226 94.9188C119.566 87.6218 124.856 80.2335 129.946 72.7679C133.757 67.1782 137.694 61.5138 141.681 56.141C144.115 52.8601 145.879 49.233 148.304 46" stroke="black" stroke-width="3" stroke-linecap="round"/>
<path d="M46.6901 95.61C49.1593 102.084 53.1858 107.935 57.195 113.549C61.6247 119.75 66.3539 125.768 70.8275 131.963C74.4544 136.985 78.2875 141.898 81.96 146.901C83.2785 148.697 84.5685 151.766 86.2295 153.193C87.1608 153.993 88.3772 149.725 88.4814 149.483C90.1946 145.506 92.2091 141.544 94.5924 137.924C103.624 124.208 112.911 111.086 124.007 98.9141C130.099 92.2315 136.15 85.4527 142.011 78.5757C146.399 73.4267 150.921 68.2169 155.46 63.3023C158.232 60.3012 160.375 56.8841 163.132 53.9296" stroke="black" stroke-width="3" stroke-linecap="round"/>
<path d="M38.195 109.009C42.1815 114.676 47.5244 119.357 52.7917 123.81C58.6115 128.731 64.6761 133.4 70.5368 138.303C75.2882 142.278 80.2126 146.097 85.0032 150.042C86.7233 151.458 88.729 154.116 90.6901 155.09C91.7897 155.636 91.9182 151.2 91.9597 150.94C92.6414 146.664 93.6188 142.328 95.038 138.233C100.416 122.715 106.188 107.711 113.947 93.183C118.207 85.2067 122.403 77.1472 126.391 69.0393C129.377 62.9686 132.478 56.8062 135.668 50.9257C137.616 47.3347 138.852 43.4953 140.798 39.9531" stroke="black" stroke-width="3" stroke-linecap="round"/>
</g>
<defs>
<clipPath id="clip0">
<rect width="134" height="128" fill="white" transform="translate(29 32)"/>
</clipPath>
</defs>
</svg>
